<?xml version="1.0" standalone="no"?>
<!DOCTYPE svg PUBLIC "-//W3C//DTD SVG 20010904//EN"
 "http://www.w3.org/TR/2001/REC-SVG-20010904/DTD/svg10.dtd">
<svg version="1.0" xmlns="http://www.w3.org/2000/svg"
 width="1638.000000pt" height="1638.000000pt" viewBox="0 0 1638.000000 1638.000000"
 preserveAspectRatio="xMidYMid meet">
<metadata>
Created by potrace 1.14, written by Peter Selinger 2001-2017
</metadata>
<g transform="translate(0.000000,1638.000000) scale(0.100000,-0.100000)"
fill="#000000" stroke="none">
<path d="M7115 14865 c-1065 -84 -2049 -396 -2939 -932 -77 -46 -145 -85 -151
-86 -5 -1 -14 -7 -20 -13 -5 -6 -66 -49 -135 -95 -69 -45 -151 -102 -182 -126
-31 -24 -61 -43 -66 -43 -6 0 -12 -4 -14 -8 -1 -5 -46 -42 -98 -82 -52 -41
-120 -95 -150 -121 -30 -26 -71 -54 -92 -62 -20 -8 -39 -24 -42 -35 -4 -10
-39 -48 -79 -83 -211 -186 -542 -531 -732 -764 -101 -124 -93 -114 -142 -177
-19 -27 -40 -48 -44 -48 -5 0 -9 -5 -9 -11 0 -6 -14 -31 -31 -56 -22 -31 -36
-43 -49 -40 -22 6 -52 -12 -32 -20 22 -9 13 -34 -45 -116 -300 -425 -590 -993
-784 -1532 -24 -66 -47 -122 -51 -123 -5 -2 -6 -7 -4 -11 3 -4 -15 -72 -40
-151 -61 -196 -151 -557 -178 -715 -63 -361 -80 -504 -106 -875 -7 -112 -5
-720 4 -790 2 -19 7 -73 11 -120 17 -222 63 -543 114 -788 l19 -93 -99 -49
c-54 -28 -105 -47 -114 -44 -9 4 -15 1 -15 -8 0 -8 -19 -23 -43 -34 -55 -26
-284 -146 -370 -195 -38 -22 -75 -39 -82 -39 -7 0 -18 -6 -24 -13 -6 -8 -76
-52 -156 -98 -80 -46 -145 -87 -145 -90 0 -4 8 -9 18 -12 9 -4 48 -17 87 -31
38 -14 74 -21 80 -17 41 33 259 149 270 144 9 -3 15 1 15 9 0 16 40 38 69 38
11 0 21 7 25 15 5 14 281 155 451 231 l70 32 3 -34 c2 -19 7 -34 13 -34 5 0 9
-8 9 -17 0 -28 112 -392 169 -550 48 -134 155 -397 206 -508 37 -81 183 -376
213 -430 128 -232 355 -593 440 -700 28 -35 92 -125 92 -129 0 -3 14 -20 30
-38 17 -18 30 -38 30 -44 0 -7 4 -14 8 -16 5 -1 55 -59 111 -126 119 -143 168
-199 295 -336 50 -54 90 -103 88 -108 -1 -5 1 -7 6 -4 4 2 48 -35 97 -84 l89
-89 -20 -22 c-18 -21 -120 -112 -254 -229 -35 -30 -68 -60 -74 -66 -6 -5 -38
-34 -71 -64 -93 -83 -226 -203 -247 -223 -10 -9 -73 -68 -141 -129 -67 -62
-133 -124 -147 -138 -14 -14 -49 -47 -78 -73 -48 -44 -53 -53 -57 -100 -12
-139 -15 -187 -11 -187 2 0 55 52 119 115 63 63 120 115 126 115 6 0 11 7 11
15 0 8 3 15 8 15 4 0 43 35 88 78 74 71 289 268 324 295 8 7 18 11 22 9 5 -1
8 4 8 12 0 16 65 68 94 76 10 3 20 14 22 24 1 11 7 22 13 25 11 7 74 60 162
136 84 73 152 130 173 145 12 8 27 20 34 27 26 25 23 27 199 -126 24 -21 85
-71 137 -112 52 -41 95 -80 95 -86 1 -7 7 -13 14 -13 7 0 22 -7 32 -15 11 -8
67 -48 125 -89 58 -41 116 -83 130 -93 68 -52 430 -274 590 -362 179 -99 671
-327 767 -355 11 -4 27 -13 33 -21 7 -8 22 -15 33 -15 11 0 84 -22 161 -49
319 -112 694 -211 1031 -271 125 -22 366 -56 470 -65 39 -4 81 -8 95 -11 179
-29 960 -25 1235 6 44 5 107 11 140 15 273 27 745 123 1057 214 196 57 516
165 583 196 17 8 107 46 200 86 207 87 538 255 747 378 85 50 160 91 166 91 6
0 15 6 19 13 10 16 207 147 222 147 6 0 11 4 11 8 0 12 145 110 174 118 14 3
26 12 26 19 0 8 28 35 63 61 152 116 328 266 558 474 15 14 38 34 51 46 50 45
336 354 433 469 33 39 62 72 65 75 3 3 32 39 65 80 32 41 64 80 70 87 5 7 28
37 50 67 22 31 47 56 56 56 10 0 20 12 24 28 7 27 37 82 58 105 12 12 166 243
202 302 10 17 24 34 32 38 7 4 13 14 13 22 0 7 26 57 58 112 275 464 518 1033
663 1553 22 80 43 152 46 160 3 8 7 24 8 35 2 11 10 47 18 80 40 156 98 466
121 650 26 205 27 214 46 450 9 112 6 879 -3 925 -3 14 -8 63 -12 110 -23 299
-98 728 -187 1070 -60 234 -145 492 -253 768 -37 95 -66 174 -64 175 2 1 15
11 28 22 14 11 21 14 16 6 -5 -10 -4 -12 3 -7 7 4 12 13 12 21 0 8 6 18 14 22
12 7 128 108 162 141 7 6 20 12 29 12 10 0 13 5 9 12 -4 6 1 17 11 24 31 23
145 132 358 343 298 293 413 414 627 658 56 64 80 84 106 89 35 6 57 24 30 24
-32 0 -24 21 34 80 33 35 58 66 55 69 -2 4 7 19 21 34 34 37 289 378 348 465
27 40 56 78 65 85 9 7 16 17 16 22 0 9 40 74 197 323 81 129 302 582 379 777
35 88 65 162 66 164 2 3 10 -4 18 -15 13 -17 14 -10 15 69 0 48 -4 87 -9 87
-5 0 -19 -17 -31 -37 -12 -21 -28 -42 -36 -46 -8 -4 -14 -15 -14 -22 0 -8 -4
-15 -10 -15 -5 0 -10 -7 -10 -15 0 -8 -4 -15 -8 -15 -5 0 -15 -12 -23 -27 -14
-29 -104 -151 -124 -168 -6 -5 -14 -18 -18 -28 -4 -11 -15 -21 -25 -23 -9 -3
-34 -32 -55 -64 -21 -33 -46 -62 -56 -65 -9 -3 -26 -20 -37 -38 -26 -46 -146
-177 -161 -177 -6 0 -14 -8 -17 -18 -7 -20 -109 -122 -123 -122 -5 0 -15 -10
-23 -22 -18 -25 -39 -46 -71 -70 -13 -10 -20 -18 -15 -18 8 0 -54 -55 -63 -55
-11 -1 -61 -52 -61 -63 0 -6 -4 -12 -9 -14 -5 -1 -44 -35 -87 -74 -44 -39 -95
-84 -114 -100 -19 -16 -37 -31 -40 -34 -33 -34 -84 -69 -92 -64 -6 4 -8 3 -4
-4 3 -6 -16 -27 -44 -49 -27 -21 -66 -52 -87 -70 -28 -24 -40 -29 -50 -21 -10
8 -12 7 -7 -5 6 -17 -91 -101 -107 -91 -5 3 -9 -1 -9 -8 0 -13 -234 -192 -450
-343 -221 -156 -265 -183 -272 -172 -5 8 -10 5 -14 -10 -4 -13 -10 -23 -14
-23 -5 0 -15 -6 -22 -13 -12 -12 -75 -54 -268 -179 -156 -101 -399 -248 -409
-248 -6 0 -16 10 -22 23 -18 33 -96 152 -161 244 -32 45 -58 86 -58 91 0 6 -4
12 -9 14 -5 2 -60 71 -121 153 -62 83 -116 152 -119 155 -4 3 -40 46 -81 95
-76 92 -105 124 -220 249 -87 94 -353 358 -426 421 -31 28 -82 74 -113 103
-30 28 -57 52 -60 52 -2 0 -47 35 -100 78 -128 104 -244 193 -368 280 -57 40
-103 77 -103 82 0 6 -7 10 -16 10 -16 0 -74 36 -86 55 -4 5 -11 10 -15 10 -22
1 -126 70 -131 87 -2 11 -8 15 -11 9 -7 -10 -212 103 -244 136 -11 10 -23 17
-28 16 -5 -2 -32 10 -61 25 -769 414 -1656 684 -2503 762 -66 6 -138 13 -160
16 -93 13 -794 12 -960 -1z"/>
</g>
</svg>
